<?xml version="1.0" encoding="UTF-8"?>
<svg id="Layer_2" data-name="Layer 2" xmlns="http://www.w3.org/2000/svg" viewBox="0 0 1202.46 146.81">
  <defs>
    <style>
      .cls-1 {
        fill: #231f20;
      }
    </style>
  </defs>
  <g id="Layer_1-2" data-name="Layer 1">
    <g>
      <path class="cls-1" d="m0,11.25h72.04v16.36H21.03v29.1h41.46v15.47H21.03v31.09h53.53v16.36H0V11.25Z"/>
      <path class="cls-1" d="m89.59,40.35h18.95v12.59c5.11-9.77,15.77-14.29,26.8-14.29,19.03,0,27.62,13.4,27.62,31.39v49.6h-19.25v-47.75c0-11.11-4.96-17.62-16.21-17.62-11.92,0-18.95,7.4-18.95,18.8v46.57h-18.95V40.35Z"/>
      <path class="cls-1" d="m240.77,106.32c-5.26,9.18-17.1,14.81-27.47,14.81-24.28,0-35.61-18.8-35.61-41.09s12.88-41.39,36.2-41.39c10.96,0,21.32,4.37,26.88,13.92V4.44h18.88v115.2h-18.88v-13.33Zm.44-27.02c0-14.36-6.37-25.84-22.06-25.84-16.58,0-22.14,12.88-22.14,27.39,0,13.33,6.52,25.47,21.99,25.47s22.21-12.44,22.21-27.02Z"/>
      <path class="cls-1" d="m280.46,40.35h18.95v12.81c5.48-9.25,16.58-14.51,27.17-14.51,24.21,0,35.91,19.47,35.91,41.09s-12.44,41.39-35.39,41.39c-11.11,0-22.36-4.44-27.69-13.92v39.61h-18.95V40.35Zm62.49,38.94c0-13.4-6.66-25.84-22.21-25.84s-21.99,12.51-21.99,26.8,6.81,26.06,22.58,26.06c16.73,0,21.62-12.44,21.62-27.02Z"/>
      <path class="cls-1" d="m414.62,38.65c24.06,0,42.57,16.88,42.57,41.16s-19.47,41.31-43.38,41.31-43.53-16.73-43.53-40.94,20.51-41.53,44.35-41.53Zm22.21,41.31c0-14.58-7.4-26.73-22.95-26.73s-22.36,12.73-22.36,27.25,7.48,26.06,22.8,26.06,22.51-12.73,22.51-26.58Z"/>
      <path class="cls-1" d="m481.1,6.81c6.15,0,11.03,4.52,11.03,10.81s-4.74,10.74-10.96,10.74-11.33-4.59-11.33-10.81,5.11-10.74,11.25-10.74Zm-9.55,33.69h18.95v79.14h-18.95V40.5Z"/>
      <path class="cls-1" d="m511.98,40.35h18.95v12.59c5.11-9.77,15.77-14.29,26.8-14.29,19.03,0,27.62,13.4,27.62,31.39v49.6h-19.25v-47.75c0-11.11-4.96-17.62-16.21-17.62-11.92,0-18.95,7.4-18.95,18.8v46.57h-18.95V40.35Z"/>
      <path class="cls-1" d="m645.4,119.05c-4.07,1.18-8.29,1.92-13.03,1.92-15.1,0-24.06-7.85-24.06-23.62v-43.09h-10.66v-13.92h10.66v-16.36l18.95-8.22v24.58h17.47v13.92h-17.47v41.39c0,6.22,2.67,10.07,9.62,10.07,2.67,0,5.63-.59,8.51-1.55v14.88Z"/>
      <path class="cls-1" d="m790.95,89.81c-6.74,20.58-26.13,31.32-47.09,31.32-34.95,0-54.19-22.14-54.19-56.19,0-31.1,21.62-55.23,53.6-55.23,20.51,0,38.42,9.85,46.57,29.24l-17.33,7.33c-4.59-11.92-15.33-20.21-28.36-20.21-22.95,0-32.43,19.62-32.43,39.61s10.37,38.65,32.95,38.65c14.29,0,24.65-8.66,29.54-21.69l16.73,7.18Z"/>
      <path class="cls-1" d="m875.88,102.39c-6.59,13.99-20.8,18.73-35.39,18.73-25.02,0-40.79-16.73-40.79-41.39,0-23.25,16.07-41.09,39.9-41.09,25.62,0,38.13,14.96,38.13,45.53h-58.71c0,13.4,7.77,23.17,22.21,23.17,8.59,0,15.7-3.48,19.84-11.55l14.81,6.59Zm-17.03-30.65c-.59-11.99-7.85-19.32-19.03-19.32-11.92,0-18.88,8.37-20.51,19.32h39.54Z"/>
      <path class="cls-1" d="m892.98,40.35h18.95v12.59c5.11-9.77,15.77-14.29,26.8-14.29,19.03,0,27.62,13.4,27.62,31.39v49.6h-19.25v-47.75c0-11.11-4.96-17.62-16.21-17.62-11.92,0-18.95,7.4-18.95,18.8v46.57h-18.95V40.35Z"/>
      <path class="cls-1" d="m1026.4,119.05c-4.07,1.18-8.29,1.92-13.03,1.92-15.1,0-24.06-7.85-24.06-23.62v-43.09h-10.66v-13.92h10.66v-16.36l18.95-8.22v24.58h17.47v13.92h-17.47v41.39c0,6.22,2.67,10.07,9.62,10.07,2.67,0,5.63-.59,8.51-1.55v14.88Z"/>
      <path class="cls-1" d="m1042.17,40.35h18.95v14.88c5.33-10.88,13.99-16.07,26.06-16.07v17.55c-15.33,0-26.06,5.04-26.06,21.99v40.94h-18.95V40.35Z"/>
      <path class="cls-1" d="m1144.34,109.94c-6,8-14.81,11.18-24.58,11.18-14.88,0-26.58-7.55-26.58-23.1,0-21.99,23.25-25.47,41.68-25.47h9.33v-1.26c0-11.33-2.67-18.51-15.47-18.51-7.7,0-14.81,4-17.62,11.33l-14.73-6.37c5.33-13.99,20.14-19.1,34.28-19.1,18.73,0,32.35,9.03,32.35,29.17v51.83h-18.66v-9.7Zm-9.7-25.76c-8.74,0-22.65,1.04-22.65,13.03,0,7.63,5.55,10.44,12.66,10.44,9.62,0,19.54-5.03,19.54-15.77v-7.7h-9.55Z"/>
      <path class="cls-1" d="m1183.51,8.22l18.95-8.22v119.64h-18.95V8.22Z"/>
    </g>
  </g>
</svg>